<!-- <svg width="18" height="20" viewBox="0 0 18 20" fill="none" xmlns="http://www.w3.org/2000/svg">
<path d="M17 20H1C0.734784 20 0.48043 19.8946 0.292893 19.7071C0.105357 19.5196 0 19.2652 0 19V1C0 0.734784 0.105357 0.48043 0.292893 0.292893C0.48043 0.105357 0.734784 0 1 0H17C17.2652 0 17.5196 0.105357 17.7071 0.292893C17.8946 0.48043 18 0.734784 18 1V19C18 19.2652 17.8946 19.5196 17.7071 19.7071C17.5196 19.8946 17.2652 20 17 20ZM16 18V2H2V18H16ZM6 4V6C6 6.79565 6.31607 7.55871 6.87868 8.12132C7.44129 8.68393 8.20435 9 9 9C9.79565 9 10.5587 8.68393 11.1213 8.12132C11.6839 7.55871 12 6.79565 12 6V4H14V6C14 7.32608 13.4732 8.59785 12.5355 9.53553C11.5979 10.4732 10.3261 11 9 11C7.67392 11 6.40215 10.4732 5.46447 9.53553C4.52678 8.59785 4 7.32608 4 6V4H6Z" fill="#FB911C"/>
</svg>
 -->

<svg xmlns="http://www.w3.org/2000/svg" viewBox="0 0 576 512"><!--!Font Awesome Free 6.5.2 by @fontawesome - https://fontawesome.com License - https://fontawesome.com/license/free Copyright 2024 Fonticons, Inc.--><path fill="#f0bc00" d="M0 24C0 10.7 10.7 0 24 0H69.5c22 0 41.5 12.8 50.6 32h411c26.3 0 45.5 25 38.6 50.4l-41 152.3c-8.5 31.4-37 53.3-69.5 53.3H170.7l5.4 28.5c2.2 11.3 12.1 19.5 23.6 19.5H488c13.3 0 24 10.7 24 24s-10.7 24-24 24H199.7c-34.6 0-64.3-24.6-70.7-58.5L77.4 54.5c-.7-3.8-4-6.5-7.9-6.5H24C10.7 48 0 37.3 0 24zM128 464a48 48 0 1 1 96 0 48 48 0 1 1 -96 0zm336-48a48 48 0 1 1 0 96 48 48 0 1 1 0-96z"/></svg>